HIERARCHY
ROOT Pelvis
{
	OFFSET 0.000000 0.000000 0.000000
	CHANNELS 6 Xposition Yposition Zposition Xrotation Yrotation Zrotation
	JOINT LeftUpLeg_virtual
	{
		OFFSET 0.000000 0.000000 0.000000
		CHANNELS 3 Xrotation Yrotation Zrotation
		JOINT LeftUpLeg
		{
			OFFSET 18.735201 -5.666702 -4.541200
			CHANNELS 3 Xrotation Yrotation Zrotation
			JOINT LeftLeg
			{
				OFFSET -0.021200 -31.938179 0.493100
				CHANNELS 3 Xrotation Yrotation Zrotation
				JOINT LeftFoot
				{
					OFFSET 0.021200 -31.938179 -4.336299
					CHANNELS 3 Xrotation Yrotation Zrotation
					JOINT LeftToeBase
					{
						OFFSET 0.943001 -26.722000 15.023500
						CHANNELS 3 Xrotation Yrotation Zrotation
						End Site
						{
							OFFSET 0 0 0
						}
					}
				}
			}
		}
	}
	JOINT RightUpLeg_virtual
	{
		OFFSET 0.000000 0.000000 0.000000
		CHANNELS 3 Xrotation Yrotation Zrotation
		JOINT RightUpLeg
		{
			OFFSET -18.735201 -5.666702 -4.541200
			CHANNELS 3 Xrotation Yrotation Zrotation
			JOINT RightLeg
			{
				OFFSET 0.018946 -31.938133 0.493100
				CHANNELS 3 Xrotation Yrotation Zrotation
				JOINT RightFoot
				{
					OFFSET -0.018946 -31.938126 -4.336299
					CHANNELS 3 Xrotation Yrotation Zrotation
					JOINT RightToeBase
					{
						OFFSET -0.943001 -26.722004 15.023500
						CHANNELS 3 Xrotation Yrotation Zrotation
						End Site
						{
							OFFSET 0 0 0
						}
					}
				}
			}
		}
	}
	JOINT Hips_virtual
	{
		OFFSET 0.000000 0.000000 0.000000
		CHANNELS 3 Xrotation Yrotation Zrotation
		JOINT Hips
		{
			OFFSET -0.000000 -0.000000 -0.000000
			CHANNELS 3 Xrotation Yrotation Zrotation
			JOINT Spine
			{
				OFFSET 0.000000 10.199997 -0.299500
				CHANNELS 3 Xrotation Yrotation Zrotation
				JOINT Spine1
				{
					OFFSET 0.000000 11.900002 -1.516600
					CHANNELS 3 Xrotation Yrotation Zrotation
					JOINT Spine2
					{
						OFFSET 0.000000 13.600006 -2.842500
						CHANNELS 3 Xrotation Yrotation Zrotation
						JOINT Neck_virtual
						{
							OFFSET 0.000000 0.000000 0.000000
							CHANNELS 3 Xrotation Yrotation Zrotation
							JOINT Neck
							{
								OFFSET 0.000000 9.624100 -2.890100
								CHANNELS 3 Xrotation Yrotation Zrotation
								JOINT Head
								{
									OFFSET 0.000000 14.068802 -1.351900
									CHANNELS 3 Xrotation Yrotation Zrotation
									End Site
									{
										OFFSET 0 0 0
									}
								}
							}
						}
						JOINT LeftShoulder_virtual
						{
							OFFSET 0.000000 0.000000 0.000000
							CHANNELS 3 Xrotation Yrotation Zrotation
							JOINT LeftShoulder
							{
								OFFSET 15.263000 10.923401 -0.547700
								CHANNELS 3 Xrotation Yrotation Zrotation
								JOINT LeftArm
								{
									OFFSET 25.438599 -2.830597 -13.032500
									CHANNELS 3 Xrotation Yrotation Zrotation
									JOINT LeftForeArm
									{
										OFFSET 29.960503 0.000000 0.000000
										CHANNELS 3 Xrotation Yrotation Zrotation
										JOINT LeftHand
										{
											OFFSET 27.849251 0.000000 0.000000
											CHANNELS 3 Xrotation Yrotation Zrotation
											End Site
											{
												OFFSET 0 0 0
											}
										}
									}
								}
							}
						}
						JOINT RightShoulder_virtual
						{
							OFFSET 0.000000 0.000000 0.000000
							CHANNELS 3 Xrotation Yrotation Zrotation
							JOINT RightShoulder
							{
								OFFSET -15.263000 10.923401 -0.547700
								CHANNELS 3 Xrotation Yrotation Zrotation
								JOINT RightArm
								{
									OFFSET -25.438599 -2.830597 -13.032500
									CHANNELS 3 Xrotation Yrotation Zrotation
									JOINT RightForeArm
									{
										OFFSET -29.960503 0.000000 0.000000
										CHANNELS 3 Xrotation Yrotation Zrotation
										JOINT RightHand
										{
											OFFSET -27.849251 0.000000 0.000000
											CHANNELS 3 Xrotation Yrotation Zrotation
											End Site
											{
												OFFSET 0 0 0
											}
										}
									}
								}
							}
						}
					}
				}
			}
		}
	}
}
MOTION
Frames: 12
Frame Time: 0.03333333
-10.697458 93.841476 8.730061 0.000000 0.000000 0.000000 -3.721662 -18.148487 0.703780 -4.041056 23.627656 13.240031 17.049621 -0.983232 -9.401090 -8.790769 0.806042 -1.734567 0.000000 0.000000 0.000000 -3.963403 -17.019160 0.610118 -13.607087 -6.263849 -11.500211 19.697255 -10.668750 1.294358 2.882086 -0.630718 4.642230 0.000000 0.000000 0.000000 -4.067672 -17.056924 0.840561 -0.761189 -0.117602 -0.116368 3.611487 0.825224 -2.037012 11.977545 -0.669142 -0.477881 0.000000 0.000000 0.000000 11.007822 2.886472 -1.717664 -3.165047 1.549959 1.801005 0.000000 0.000000 0.000000 13.332702 1.760291 -2.563728 -18.477482 -21.816620 6.491600 16.661582 20.003189 -82.822560 -15.907502 -26.459642 -7.765129 0.000000 0.000000 0.000000 9.035902 3.323039 -1.532173 0.220678 -3.061001 -3.091811 -17.858129 -16.212234 74.219656 -12.605558 42.932991 52.089099 0.000000 0.000000 0.000000 
-10.763773 93.853661 8.626257 0.000000 0.000000 0.000000 -3.675473 -18.210355 0.777682 -4.209738 23.540652 13.375904 17.191706 -1.215184 -9.310492 -8.817309 0.758277 -2.062725 0.000000 0.000000 0.000000 -3.904734 -17.122314 0.751011 -13.410830 -6.275918 -11.325827 19.483844 -10.773848 1.324833 1.518999 -0.985654 4.755053 0.000000 0.000000 0.000000 -3.984982 -17.090079 0.932023 -0.765434 -0.108978 -0.121020 3.695654 0.832944 -2.141758 11.949132 -0.668470 -0.565125 0.000000 0.000000 0.000000 10.922119 2.882499 -1.727944 -3.113694 1.561555 1.823525 0.000000 0.000000 0.000000 13.297332 1.737209 -2.652444 -18.464648 -21.585747 6.539601 16.574777 20.102925 -82.519648 -15.691883 -26.068254 -7.730134 0.000000 0.000000 0.000000 9.010611 3.326763 -1.511585 0.257277 -3.006876 -2.919096 -17.850284 -16.119730 74.058409 -12.868786 43.125838 52.463028 0.000000 0.000000 0.000000 
-10.810328 93.858788 8.431206 0.000000 0.000000 0.000000 -3.638011 -18.214187 0.776980 -5.162452 23.563002 13.906849 18.148298 -1.495382 -9.092839 -8.506354 0.693997 -2.334744 0.000000 0.000000 0.000000 -3.813166 -17.249834 0.806009 -13.435311 -6.396101 -11.076953 19.429542 -10.786616 1.318332 0.368978 -1.307173 5.355900 0.000000 0.000000 0.000000 -3.831942 -17.181925 0.957959 -0.762835 -0.106196 -0.123656 3.826695 0.838460 -2.206274 11.799321 -0.690429 -0.660746 0.000000 0.000000 0.000000 10.735208 2.864036 -1.757678 -3.104481 1.552457 1.869441 0.000000 0.000000 0.000000 13.145807 1.707087 -2.770236 -18.475062 -21.238441 6.426234 16.513459 20.156885 -81.784064 -15.348625 -25.686876 -7.830501 0.000000 0.000000 0.000000 8.914196 3.314515 -1.516967 0.292420 -3.054855 -2.580091 -17.864510 -15.736150 73.639630 -13.270953 43.348919 53.012821 0.000000 0.000000 0.000000 
-10.820518 93.863586 8.186493 0.000000 0.000000 0.000000 -3.600492 -18.196107 0.704851 -6.833283 23.681618 14.765703 19.941390 -1.782227 -8.811345 -8.027213 0.613864 -2.511470 0.000000 0.000000 0.000000 -3.718001 -17.374000 0.775191 -13.838248 -6.437755 -10.770770 19.640550 -10.593106 1.150184 0.415750 -1.495475 6.322240 0.000000 0.000000 0.000000 -3.636603 -17.329143 0.923915 -0.755490 -0.107202 -0.120951 4.000833 0.833068 -2.234920 11.563998 -0.728890 -0.733061 0.000000 0.000000 0.000000 10.508926 2.836079 -1.783679 -3.123023 1.524567 1.930915 0.000000 0.000000 0.000000 12.889625 1.676441 -2.882766 -18.487364 -20.810343 6.188124 16.452896 20.139069 -80.687470 -14.962819 -25.471165 -8.121295 0.000000 0.000000 0.000000 8.762760 3.291520 -1.524894 0.327574 -3.245664 -2.129654 -17.901806 -15.102778 73.015050 -13.710090 43.529410 53.639227 0.000000 0.000000 0.000000 
-10.770512 93.833839 7.884985 0.000000 0.000000 0.000000 -3.534461 -18.249736 0.575265 -8.805453 23.816567 15.725855 22.211582 -2.096196 -8.480729 -7.808795 0.489636 -2.639891 0.000000 0.000000 0.000000 -3.618740 -17.516734 0.677176 -14.397499 -6.464215 -10.283382 19.826175 -10.349693 0.747805 1.050501 -1.830304 7.033321 0.000000 0.000000 0.000000 -3.448194 -17.562220 0.833802 -0.740065 -0.103771 -0.115307 4.213256 0.824439 -2.262451 11.294514 -0.760540 -0.763837 0.000000 0.000000 0.000000 10.280289 2.812486 -1.778726 -3.146313 1.484536 1.997454 0.000000 0.000000 0.000000 12.567958 1.660036 -2.948135 -18.462479 -20.330543 5.884957 16.373495 20.030691 -79.364339 -14.619528 -25.481547 -8.639503 0.000000 0.000000 0.000000 8.571932 3.270835 -1.514260 0.367215 -3.567853 -1.617407 -17.967195 -14.304779 72.244195 -14.087915 43.605738 54.236975 0.000000 0.000000 0.000000 
-10.634834 93.780869 7.556503 0.000000 0.000000 0.000000 -3.441922 -18.467165 0.431737 -10.382617 24.024444 16.454378 24.211817 -2.429056 -8.142829 -8.111358 0.338462 -2.857039 0.000000 0.000000 0.000000 -3.523824 -17.745559 0.526197 -14.876236 -6.630468 -9.602057 19.615463 -10.232717 0.135870 1.294855 -2.540085 7.051904 0.000000 0.000000 0.000000 -3.312518 -17.918347 0.702592 -0.724627 -0.096365 -0.109069 4.453814 0.818327 -2.325682 11.026085 -0.760752 -0.735623 0.000000 0.000000 0.000000 10.078157 2.812727 -1.718702 -3.151074 1.437068 2.056126 0.000000 0.000000 0.000000 12.231465 1.673290 -2.934233 -18.376334 -19.816814 5.562858 16.236429 19.832228 -77.978958 -14.393053 -25.645648 -9.374802 0.000000 0.000000 0.000000 8.368035 3.264414 -1.461819 0.420880 -3.994013 -1.115116 -18.046569 -13.470032 71.333580 -14.341288 43.531476 54.726956 0.000000 0.000000 0.000000 
-10.391268 93.719040 7.189177 0.000000 0.000000 0.000000 -3.358318 -18.944175 0.308626 -11.120538 24.480812 16.744345 25.211039 -2.620839 -7.880664 -8.785430 0.274151 -3.168172 0.000000 0.000000 0.000000 -3.469849 -18.189526 0.361712 -15.241888 -6.928661 -8.926779 18.887503 -10.086195 -0.566921 1.460018 -3.316574 6.625518 0.000000 0.000000 0.000000 -3.272022 -18.484688 0.556677 -0.713927 -0.085635 -0.108507 4.761357 0.828296 -2.469278 10.770016 -0.711693 -0.638232 0.000000 0.000000 0.000000 9.890588 2.847836 -1.593835 -3.123200 1.386007 2.094772 0.000000 0.000000 0.000000 11.901895 1.728432 -2.820849 -18.199101 -19.280000 5.299886 15.995424 19.604439 -76.693285 -14.304580 -25.776229 -10.263726 0.000000 0.000000 0.000000 8.161198 3.280106 -1.351205 0.494548 -4.469174 -0.647362 -18.069940 -12.635631 70.213088 -14.499353 43.328890 55.127973 0.000000 0.000000 0.000000 
-10.012112 93.648651 6.769991 0.000000 0.000000 0.000000 -3.324518 -19.737227 0.211505 -10.998244 25.258291 16.523894 25.055917 -2.517315 -7.722242 -9.397811 0.549708 -3.345965 0.000000 0.000000 0.000000 -3.494074 -18.945802 0.201434 -15.947213 -7.250623 -8.519638 18.127139 -9.589890 -1.188637 2.594278 -3.661818 6.219903 0.000000 0.000000 0.000000 -3.356246 -19.313384 0.387050 -0.709646 -0.073956 -0.101115 5.157729 0.867057 -2.729839 10.514859 -0.611303 -0.485003 0.000000 0.000000 0.000000 9.688643 2.915034 -1.407700 -3.058694 1.336861 2.105284 0.000000 0.000000 0.000000 11.589334 1.830297 -2.609647 -17.908445 -18.718723 5.130271 15.667902 19.399255 -75.627597 -14.359909 -25.679831 -11.231039 0.000000 0.000000 0.000000 7.939708 3.317647 -1.181783 0.600037 -4.927193 -0.260737 -17.963976 -11.793746 68.871010 -14.628404 43.069394 55.492623 0.000000 0.000000 0.000000 
-9.487150 93.537254 6.289585 0.000000 0.000000 0.000000 -3.372388 -20.926749 0.131856 -10.223978 26.283929 15.829792 24.107354 -2.112855 -7.647861 -9.646881 1.263926 -3.212428 0.000000 0.000000 0.000000 -3.657722 -20.056823 0.049082 -17.329703 -7.393939 -8.546410 17.813722 -8.583860 -1.647040 5.333889 -3.374384 5.993088 0.000000 0.000000 0.000000 -3.573876 -20.443581 0.196525 -0.711467 -0.061322 -0.091438 5.666406 0.928228 -3.112785 10.245760 -0.477054 -0.279073 0.000000 0.000000 0.000000 9.463118 3.003521 -1.183003 -2.962445 1.286502 2.085543 0.000000 0.000000 0.000000 11.294185 1.966902 -2.323891 -17.501211 -18.162622 5.046221 15.242356 19.306138 -74.748900 -14.565976 -25.357123 -12.230002 0.000000 0.000000 0.000000 7.692539 3.368127 -0.960771 0.751491 -5.314401 0.006497 -17.678114 -10.852396 67.420736 -14.750482 42.784322 55.800258 0.000000 0.000000 0.000000 
-8.864779 93.399666 5.730005 0.000000 0.000000 0.000000 -3.536826 -22.542742 0.023058 -9.022565 27.387395 14.794572 22.686519 -1.504991 -7.625735 -9.600766 2.224424 -2.825606 0.000000 0.000000 0.000000 -3.946934 -21.602218 -0.121577 -19.093843 -7.300419 -8.792070 17.813821 -7.186415 -1.928465 9.065806 -2.603521 5.805738 0.000000 0.000000 0.000000 -3.881504 -21.887985 -0.028817 -0.712917 -0.046685 -0.079789 6.288381 0.985246 -3.616537 9.942257 -0.331283 -0.030018 0.000000 0.000000 0.000000 9.205301 3.098622 -0.937313 -2.846621 1.233315 2.041467 0.000000 0.000000 0.000000 10.994579 2.116689 -1.990687 -16.983588 -17.652308 5.044904 14.726562 19.367531 -73.923049 -14.894839 -24.966478 -13.240275 0.000000 0.000000 0.000000 7.409492 3.422586 -0.705065 0.942214 -5.603307 0.177130 -17.209522 -9.660850 66.062478 -14.876996 42.492468 56.031990 0.000000 0.000000 0.000000 
-8.168772 93.296188 5.091698 0.000000 0.000000 0.000000 -3.787810 -24.572862 -0.170303 -7.587787 28.421086 13.617998 21.023773 -0.870006 -7.615607 -9.480628 3.160887 -2.400622 0.000000 0.000000 0.000000 -4.289321 -23.594907 -0.370057 -20.776817 -7.064136 -8.944536 17.810413 -5.694639 -2.088417 12.169758 -1.686992 5.528776 0.000000 0.000000 0.000000 -4.199722 -23.636940 -0.311816 -0.715246 -0.039856 -0.076139 6.947595 1.023287 -4.203903 9.575181 -0.194276 0.251988 0.000000 0.000000 0.000000 8.891301 3.188105 -0.679093 -2.721025 1.175086 1.986520 0.000000 0.000000 0.000000 10.667359 2.257468 -1.634569 -16.364838 -17.219962 5.106576 14.205659 19.523488 -73.064849 -15.302508 -24.673001 -14.245312 0.000000 0.000000 0.000000 7.088888 3.474390 -0.428942 1.170358 -5.764788 0.282726 -16.548148 -8.204954 64.963541 -15.019828 42.249945 56.164697 0.000000 0.000000 0.000000 
-7.418747 93.301651 4.410309 0.000000 0.000000 0.000000 -4.047673 -26.910008 -0.488142 -6.214852 29.370257 12.595322 19.381714 -0.321061 -7.599737 -9.201276 3.942870 -2.032049 0.000000 0.000000 0.000000 -4.585148 -25.947462 -0.749371 -21.889617 -6.841187 -8.830065 17.301100 -4.292772 -2.214383 14.010658 -0.738653 5.294432 0.000000 0.000000 0.000000 -4.420883 -25.659392 -0.642911 -0.720063 -0.040652 -0.077857 7.549014 1.061527 -4.811431 9.128374 -0.069654 0.563832 0.000000 0.000000 0.000000 8.505667 3.262313 -0.407736 -2.590100 1.116466 1.934269 0.000000 0.000000 0.000000 10.277014 2.376411 -1.263787 -15.672146 -16.847384 5.180449 13.746882 19.715478 -72.131831 -15.732490 -24.590435 -15.228376 0.000000 0.000000 0.000000 6.723986 3.515766 -0.141650 1.425060 -5.814482 0.404728 -15.659346 -6.626620 64.110942 -15.250890 42.148937 56.219311 0.000000 0.000000 0.000000 
